<svg width="171" height="112" viewBox="0 0 171 112" fill="none" xmlns="http://www.w3.org/2000/svg">
<g clip-path="url(#clip0_41_306)">
<path d="M0 0H171V112H0V0Z" fill="#898989" fill-opacity="0.76"/>
<path d="M55.5908 0V13.7413H53.1686V0H55.5908Z" fill="white"/>
<path d="M55.5908 97.8495V111.591H53.1686V97.8495H55.5908Z" fill="white"/>
<path d="M0 54.4032H13.4333V56.881H0V54.4032Z" fill="white"/>
<path d="M137.277 49.2006H150.398V81.5123H137.277V49.2006Z" fill="white"/>
<path d="M143.837 17.9724C149.416 17.9724 153.944 22.5897 153.944 28.2788C153.944 33.9679 149.416 38.5851 143.837 38.5851C138.258 38.5851 133.731 33.9679 133.731 28.2788C133.731 22.5897 138.258 17.9724 143.837 17.9724Z" fill="white"/>
<path d="M92.3938 36.0934H137.277V49.4959H120.735V81.5124H107.558V49.4959H92.3938V36.0934Z" fill="white"/>
<path d="M27.3055 26.1869C32.589 20.9238 39.954 17.8688 45.6688 16.5913C50.6515 15.4775 54.3796 15.8246 54.3796 15.8246V29.3103C54.3796 29.3103 45.5247 29.1415 38.2421 34.7107C30.9595 40.28 28.3982 48.8619 28.3982 56C28.3982 69.1907 40.6131 82.6258 53.7844 81.5612C59.763 81.0781 66.3998 79.9375 72.2885 73.8505C78.1773 67.7636 78.4091 62.1377 78.4091 62.1377H54.3796V49.2005H92.3159C92.3159 49.2005 93.3637 54.5942 92.3159 61.4799C91.3088 68.099 88.3034 76.6077 83.5821 81.5123C73.9492 91.519 64.2683 96.6233 51.4181 95.4002C44.5147 94.7432 40.7805 93.5856 37.2978 91.767C34.2977 90.2005 31.452 88.5311 27.3055 84.4677C26.0766 83.2635 24.5883 81.629 23.5815 80.346C17.2476 72.2746 15.5014 63.0564 15.2937 56C15.053 47.822 17.4154 36.0389 27.3055 26.1869Z" fill="white"/>
</g>
<defs>
<clipPath id="clip0_41_306">
<rect width="171" height="112" fill="white"/>
</clipPath>
</defs>
</svg>
